<svg width="25" height="22" viewBox="0 0 25 22" fill="none" xmlns="http://www.w3.org/2000/svg">
<g clip-path="url(#clip0)">
<path d="M15.3739 0.868678H8.04436C7.53405 0.868678 7.07015 1.29069 7.07015 1.85338V5.88599H15.3739V0.868678Z" fill="#169154"/>
<path d="M7.07015 15.9677V20.0003C7.07015 20.5161 7.48765 20.985 8.04436 20.985H15.3739V15.9677H7.07015Z" fill="#18482A"/>
<path d="M15.3739 5.88617H7.07015V10.9035H15.3739V5.88617Z" fill="#0C8045"/>
<path d="M15.3739 10.9033H7.07015V15.9675H15.3739V10.9033Z" fill="#17472A"/>
<path d="M22.6569 0.868678H15.3738V5.88599H23.6775V1.85338C23.6311 1.29069 23.2136 0.868678 22.6569 0.868678Z" fill="#29C27F"/>
<path d="M15.3738 15.9672V20.9376H22.7033C23.2136 20.9376 23.6775 20.5156 23.6775 19.9529V15.9203L15.3738 15.9672Z" fill="#27663F"/>
<path d="M23.6775 5.88617H15.3738V10.9035H23.6775V5.88617Z" fill="#19AC65"/>
<path d="M23.6775 10.9033H15.3738V15.9675H23.6775V10.9033Z" fill="#129652"/>
<path d="M11.6627 16.4833H2.47767C1.96738 16.4833 1.54988 16.0613 1.54988 15.5455V6.26111C1.54988 5.74531 1.96738 5.32329 2.47767 5.32329H11.6627C12.173 5.32329 12.5905 5.74531 12.5905 6.26111V15.5455C12.5905 16.0613 12.173 16.4833 11.6627 16.4833Z" fill="#0C7238"/>
<path d="M4.75059 8.08963H6.09588L7.16283 10.1997L8.27615 8.08963H9.52866L7.81227 10.9031L9.52866 13.7165H8.2298L7.07005 11.5127L5.91032 13.7165H4.61142L6.37421 10.9031L4.75059 8.08963Z" fill="white"/>
</g>
<defs>
<clipPath id="clip0">
<rect width="23.4141" height="20.8828" fill="white" transform="translate(0.921875 0.632812)"/>
</clipPath>
</defs>
</svg>
