<svg width="26" height="23" viewBox="0 0 26 23" fill="none" xmlns="http://www.w3.org/2000/svg">
<g clip-path="url(#clip0)">
<path d="M3.55401 10.8661C3.55401 16.7781 8.39911 21.5475 14.405 21.5475C20.4109 21.5475 25.2055 16.7781 25.2055 10.8661H14.3545H3.55401Z" fill="#DC4C2C"/>
<path d="M14.3546 0.2342V10.8659H25.2056C25.2056 5.00358 20.3605 0.2342 14.3546 0.2342Z" fill="#F7A278"/>
<path d="M14.3545 0.234554C8.3991 0.234554 3.55398 5.00394 3.55398 10.8663H14.405V0.234554H14.3545Z" fill="#C06346"/>
<path d="M12.1338 16.8279H2.14081C1.58564 16.8279 1.13142 16.3807 1.13142 15.8342V5.94771C1.13142 5.40122 1.58564 4.95409 2.14081 4.95409H12.1338C12.689 4.95409 13.1432 5.40122 13.1432 5.94771V15.8342C13.1432 16.3807 12.689 16.8279 12.1338 16.8279Z" fill="#9B341F"/>
<path d="M7.54096 7.935H4.71467V13.847H5.92595V11.7604H7.28862C8.39898 11.7604 9.35791 10.8661 9.35791 9.72348V9.67379C9.35791 8.72985 8.55037 7.935 7.54096 7.935ZM8.09615 9.9222C8.09615 10.419 7.69241 10.8661 7.13721 10.8661H5.97641V8.87894H7.18768C7.69241 8.87894 8.14663 9.27636 8.14663 9.82287V9.9222H8.09615Z" fill="white"/>
</g>
<defs>
<clipPath id="clip0">
<rect width="25.3125" height="22.1484" fill="white" transform="translate(0.460938)"/>
</clipPath>
</defs>
</svg>
