<svg width="24" height="23" viewBox="0 0 24 23" fill="none" xmlns="http://www.w3.org/2000/svg">
<g clip-path="url(#clip0)">
<path d="M22.3847 0.938128H2.05114V20.7687H22.3847V0.938128Z" fill="#2A0034"/>
<path fill-rule="evenodd" clip-rule="evenodd" d="M1.12668 0.0115242V21.6954H23.3088V0.0115242H1.12668ZM2.05093 0.938186H22.3845V20.7687H2.05093V0.938186Z" fill="#EA77FF"/>
<path fill-rule="evenodd" clip-rule="evenodd" d="M6.9496 5.08973C6.9496 5.02486 6.96808 4.97853 7.04202 4.97853C7.63354 4.95073 8.50231 4.9322 9.41736 4.9322C11.9776 4.9322 13.0959 6.34072 13.0959 8.13841C13.0959 10.4922 11.3953 11.5022 9.30642 11.5022C8.95524 11.5022 8.83506 11.4837 8.5855 11.4837V15.0421C8.5855 15.1162 8.55782 15.1532 8.47463 15.1532H7.05126C6.97732 15.1532 6.94035 15.1255 6.94035 15.0421V5.08973H6.9496ZM8.5855 10.0103C8.79812 10.0288 8.9645 10.0288 9.33417 10.0288C10.4155 10.0288 11.4322 9.64893 11.4322 8.17551C11.4322 6.99866 10.7113 6.40559 9.47279 6.40559C9.10312 6.40559 8.75187 6.42412 8.5855 6.43339V10.0103ZM14.5008 9.16707C14.5008 9.05584 14.5008 8.78708 14.4545 8.26819C14.4545 8.19406 14.4638 8.17551 14.5285 8.14768C15.0922 7.91603 16.414 7.50829 17.9112 7.50829C17.9852 7.50829 18.0221 7.52684 18.0221 7.60096V8.94461C18.0221 9.01874 17.9944 9.03729 17.9205 9.03729C17.3382 9.00954 16.4971 9.08366 16.1737 9.22264V15.0606C16.1737 15.1348 16.1459 15.1718 16.0627 15.1718H14.6116C14.5377 15.1718 14.5008 15.144 14.5008 15.0606V9.16707Z" fill="#EA77FF"/>
</g>
<defs>
<clipPath id="clip0">
<rect width="22.7812" height="22.1484" fill="white" transform="translate(0.929688)"/>
</clipPath>
</defs>
</svg>
