<svg width="23" height="23" viewBox="0 0 23 23" fill="none" xmlns="http://www.w3.org/2000/svg">
<g clip-path="url(#clip0)">
<path d="M21.2727 0.938128H0.939102V20.7687H21.2727V0.938128Z" fill="#001D26"/>
<path fill-rule="evenodd" clip-rule="evenodd" d="M0.0146332 0.0115242V21.6954H22.1967V0.0115242H0.0146332ZM0.938888 0.938186H21.2724V20.7687H0.938888V0.938186Z" fill="#00C8FF"/>
<path fill-rule="evenodd" clip-rule="evenodd" d="M5.37547 5.10834C5.37547 5.062 5.51411 5.01567 5.56033 5.01567C6.16109 4.96934 7.03916 4.96934 7.96339 4.96934C10.5051 4.96934 11.5218 6.35933 11.5218 8.16634C11.5218 10.5293 9.81191 11.5486 7.73233 11.5486C7.36265 11.5486 7.27022 11.5486 6.99291 11.5486V15.1162C6.99291 15.2089 6.94672 15.2089 6.90049 15.2089H5.4679C5.37547 15.2089 5.37547 15.1626 5.37547 15.1162V5.10834ZM6.99291 10.0196C7.22396 10.0196 7.36265 10.0196 7.73233 10.0196C8.79518 10.0196 9.81191 9.64897 9.81191 8.16634C9.81191 7.00797 9.07249 6.40566 7.87095 6.40566C7.50127 6.40566 7.13153 6.40566 6.99291 6.45199V10.0196ZM14.9877 8.90762C14.2483 8.90762 14.0173 9.27833 14.0173 9.60266C14.0173 9.927 14.2021 10.1587 15.1726 10.6683C16.6051 11.3633 17.0673 12.0583 17.0673 13.0313C17.0673 14.5139 15.9582 15.3016 14.4331 15.3016C13.6475 15.3016 12.9543 15.1162 12.5384 14.8846C12.4922 14.8383 12.446 14.7919 12.446 14.7456V13.402C12.446 13.3093 12.4922 13.263 12.5384 13.3093C13.1392 13.6799 13.7862 13.8653 14.3869 13.8653C15.1264 13.8653 15.4036 13.5409 15.4036 13.1239C15.4036 12.7997 15.1725 12.4753 14.2483 12.0119C12.9543 11.3633 12.3998 10.761 12.3998 9.69534C12.3998 8.49067 13.324 7.51766 14.9415 7.51766C15.7271 7.51766 16.2817 7.65665 16.6051 7.79563C16.6976 7.842 16.6976 7.93468 16.6976 7.98098V9.23195C16.6976 9.32463 16.6513 9.371 16.559 9.32463C16.1892 9.04667 15.5885 8.90762 14.9877 8.90762Z" fill="#00C8FF"/>
</g>
<defs>
<clipPath id="clip0">
<rect width="22.7812" height="22.1484" fill="white"/>
</clipPath>
</defs>
</svg>
