<svg width="26" height="23" viewBox="0 0 26 23" fill="none" xmlns="http://www.w3.org/2000/svg">
<path d="M23.7477 0.234554H8.17217C7.58445 0.234554 7.14363 0.679609 7.14363 1.27301V5.57521H24.7762V1.27301C24.7762 0.679609 24.3354 0.234554 23.7477 0.234554Z" fill="#2D92D4"/>
<path d="M7.19269 16.2565V20.5093C7.19269 21.1026 7.63349 21.5477 8.22127 21.5477H23.7968C24.3846 21.5477 24.8254 21.1026 24.8254 20.5093V16.2565H7.19269Z" fill="#2150A9"/>
<path d="M24.7763 5.57496H7.19269V10.9156H24.7763V5.57496Z" fill="#2D83D4"/>
<path d="M24.7763 10.9157H7.19269V16.2564H24.7763V10.9157Z" fill="#2E70C9"/>
<path d="M12.0416 16.8005H2.29474C1.75596 16.8005 1.31515 16.3554 1.31515 15.8115V5.97084C1.31515 5.42689 1.75596 4.98183 2.29474 4.98183H12.0416C12.5805 4.98183 13.0213 5.42689 13.0213 5.97084V15.8115C13.0213 16.3554 12.5805 16.8005 12.0416 16.8005Z" fill="#00488D"/>
<path d="M9.73969 7.9488L8.85808 12.251L7.82948 7.9488H6.55603L5.52747 12.3499L4.59685 7.9488H3.42134L4.79277 13.8829H6.21318L7.19277 9.28394L8.22134 13.8829H9.54376L10.9152 7.9488H9.73969Z" fill="white"/>
</svg>
